<?xml version="1.0" standalone="no"?><!DOCTYPE svg PUBLIC "-//W3C//DTD SVG 1.1//EN" "http://www.w3.org/Graphics/SVG/1.1/DTD/svg11.dtd"><svg t="1583998454281" class="icon" viewBox="0 0 1025 1024" version="1.1" xmlns="http://www.w3.org/2000/svg" p-id="11608" xmlns:xlink="http://www.w3.org/1999/xlink" width="200.1953125" height="200"><defs><style type="text/css"></style></defs><path d="M645.484417 226.996576l0 292.395119c0 53.745596 44.76463 97.463334 99.806818 97.463334l21.702296 0-254.601585 289.983071-254.597492-289.983071 21.701272 0c55.036047 0 99.812958-43.718761 99.812958-97.463334L379.308684 226.996576 645.484417 226.996576M678.746534 162.018632l-332.708154 0c-18.32727 0-33.277467 14.598163-33.277467 32.490507l0 324.882556c0 17.89132-14.93894 32.486414-33.265187 32.486414l-133.088378 0c-18.319083 0-23.527961 11.103405-11.630433 24.622952l355.97516 405.594587c5.912947 6.725491 13.778456 10.151684 21.639871 10.151684 7.865509 0 15.723854-3.426193 21.639871-10.151684l355.974136-405.594587c11.893435-13.519547 6.695814-24.622952-11.626339-24.622952l-133.088378 0c-18.325223 0-33.276444-14.595093-33.276444-32.486414L712.014791 194.509139C712.014791 176.616795 697.07585 162.018632 678.746534 162.018632L678.746534 162.018632z" p-id="11609"></path><path d="M645.484417 64.553251c0-17.954768 14.873446-32.487437 33.262117-32.487437 18.389694 0 33.26928 14.531645 33.26928 32.487437 0 17.959885-14.879586 32.490507-33.26928 32.490507C660.357863 97.042735 645.484417 82.513137 645.484417 64.553251z" p-id="11610"></path><path d="M312.760913 64.553251c0-17.954768 14.880609-32.487437 33.277467-32.487437 18.389694 0 33.271327 14.531645 33.271327 32.487437 0 17.959885-14.881633 32.490507-33.271327 32.490507C327.641522 97.042735 312.760913 82.513137 312.760913 64.553251z" p-id="11611"></path><path d="M346.037356 32.065815l332.708154 0 0 64.976921-332.708154 0 0-64.976921Z" p-id="11612"></path></svg>