<?xml version="1.0" standalone="no"?><!DOCTYPE svg PUBLIC "-//W3C//DTD SVG 1.1//EN" "http://www.w3.org/Graphics/SVG/1.1/DTD/svg11.dtd"><svg t="1583998669427" class="icon" viewBox="0 0 1025 1024" version="1.1" xmlns="http://www.w3.org/2000/svg" p-id="14063" xmlns:xlink="http://www.w3.org/1999/xlink" width="200.1953125" height="200"><defs><style type="text/css"></style></defs><path d="M511.775885 117.474023l254.607725 289.982047-21.709459 0c-55.039117 0-99.819098 43.719785-99.819098 97.466404l0 292.392049-266.1655 0L378.689554 504.921451c0-53.74662-44.771794-97.466404-99.815005-97.466404l-21.701272 0L511.775885 117.474023M511.775885 32.065815c-7.855275 0-15.722831 3.426193-21.632707 10.150661l-355.982323 405.594587c-11.890365 13.519547-6.693767 24.622952 11.626339 24.622952l133.087355 0c18.3242 0 33.279514 14.595093 33.279514 32.487437l0 324.882556c0 17.890297 14.942011 32.487437 33.267234 32.487437l332.716341 0c18.317036 0 33.268257-14.59714 33.268257-32.487437L711.405894 504.921451c0-17.892344 14.949174-32.487437 33.26928-32.487437l133.083262 0c18.328293 0 23.526938-11.103405 11.63862-24.622952L533.415756 42.216476C527.503833 35.492008 519.633207 32.065815 511.775885 32.065815L511.775885 32.065815z" p-id="14064"></path><path d="M378.689554 959.754778c0 17.958862-14.880609 32.49153-33.26928 32.49153-18.391741 0-33.267234-14.532668-33.267234-32.49153 0-17.954768 14.875492-32.48539 33.267234-32.48539C363.808944 927.269388 378.689554 941.80001 378.689554 959.754778z" p-id="14065"></path><path d="M711.404871 959.754778c0 17.958862-14.877539 32.49153-33.268257 32.49153-18.398905 0-33.281561-14.532668-33.281561-32.49153 0-17.954768 14.882656-32.48539 33.281561-32.48539C696.527332 927.269388 711.404871 941.80001 711.404871 959.754778z" p-id="14066"></path><path d="M345.421297 927.269388l332.716341 0 0 64.976921-332.716341 0 0-64.976921Z" p-id="14067"></path></svg>