<svg id="图层_1" data-name="图层 1" xmlns="http://www.w3.org/2000/svg" viewBox="0 0 467.88 571.47"><defs><style>.cls-1{fill:#bcbcbc;}.cls-2{fill:#3f3f3f;}.cls-3{fill:#828282;}.cls-4{fill:#494949;}.cls-5{fill:none;stroke:#fff;stroke-miterlimit:10;stroke-width:0.5px;}.cls-6{fill:#666;}</style></defs><title>QUANTAXIS_LOGO</title><polygon class="cls-1" points="233.96 202.45 272.88 135.05 311.81 202.45 233.96 202.45"/><polygon class="cls-1" points="117.17 269.85 78.3 202.45 156.1 202.45 117.17 269.85"/><polygon class="cls-1" points="0.43 337.25 78.25 337.25 39.35 404.65 0.43 337.25"/><polygon class="cls-2" points="389.63 337.25 428.55 404.65 350.7 404.65 389.63 337.25"/><polygon class="cls-2" points="389.63 337.25 350.7 404.65 311.81 337.25 389.63 337.25"/><polygon class="cls-1" points="233.96 67.65 272.88 135.05 195.06 135.05 195.04 135.05 195.04 135 233.92 67.65 233.96 67.65"/><polygon class="cls-3" points="350.7 269.85 389.63 337.25 311.81 337.25 350.7 269.85"/><polygon class="cls-3" points="350.7 269.85 389.63 202.45 428.55 269.85 350.7 269.85"/><polygon class="cls-2" points="311.81 337.25 272.88 404.65 272.84 404.65 233.96 337.25 311.81 337.25"/><polygon class="cls-3" points="311.78 67.65 233.96 67.65 233.96 67.6 272.84 0.25 272.88 0.25 311.78 67.65"/><polygon class="cls-3" points="389.63 202.45 350.7 269.85 311.81 202.45 389.63 202.45"/><polygon class="cls-3" points="272.88 269.85 233.96 337.25 195.04 269.85 272.88 269.85"/><polygon class="cls-1" points="272.88 269.85 311.81 202.45 350.7 269.85 272.88 269.85"/><polygon class="cls-2" points="233.96 202.45 195.04 269.85 156.1 202.45 233.96 202.45"/><polygon class="cls-1" points="156.1 67.65 156.14 67.65 195.04 135 195.04 135.05 117.22 135.05 117.22 135 156.1 67.65"/><polygon class="cls-3" points="350.7 135.05 311.81 202.45 272.88 135.05 350.7 135.05"/><polygon class="cls-2" points="156.1 337.25 195.04 404.65 117.22 404.65 156.1 337.25"/><polygon class="cls-2" points="272.88 404.65 311.81 337.25 350.7 404.65 272.88 404.65"/><polygon class="cls-2" points="233.96 337.25 195.04 404.65 156.1 337.25 233.96 337.25"/><polygon class="cls-1" points="272.88 269.85 233.96 202.45 311.81 202.45 272.88 269.85"/><polygon class="cls-3" points="272.88 135.05 311.78 67.65 311.81 67.65 350.7 135.05 272.88 135.05"/><polygon class="cls-3" points="311.81 337.25 272.88 269.85 350.7 269.85 311.81 337.25"/><polygon class="cls-2" points="156.1 337.25 78.3 337.25 117.17 269.85 156.1 337.25"/><polygon class="cls-1" points="233.92 67.65 195.04 135 156.14 67.65 233.92 67.65"/><polygon class="cls-1" points="78.25 337.25 39.35 269.85 117.17 269.85 78.3 337.25 78.25 337.25"/><polygon class="cls-1" points="233.96 67.6 233.96 67.65 233.92 67.65 156.14 67.65 156.1 67.6 195.04 0.25 195.06 0.25 233.96 67.6"/><polygon class="cls-3" points="350.7 269.85 428.55 269.85 389.63 337.25 350.7 269.85"/><polygon class="cls-4" points="156.87 336.92 173.71 308.31 220.25 337.09 156.87 336.92"/><polygon class="cls-3" points="389.63 337.25 428.55 269.85 467.45 337.25 389.63 337.25"/><polygon class="cls-3" points="233.96 67.65 311.78 67.65 272.88 135.05 233.96 67.65"/><polygon class="cls-1" points="117.17 269.85 39.35 269.85 78.3 202.45 117.17 269.85"/><polygon class="cls-1" points="156.1 202.45 78.3 202.45 117.17 135.05 117.22 135.05 156.1 202.4 156.1 202.45"/><polygon class="cls-2" points="39.35 404.65 78.25 337.25 78.3 337.25 117.17 404.65 39.35 404.65"/><polygon class="cls-1" points="272.88 135.05 233.96 202.45 195.06 135.05 272.88 135.05"/><polygon class="cls-2" points="156.1 202.45 195.04 269.85 117.17 269.85 156.1 202.45"/><path class="cls-3" d="M409.36,451.67H331.5l38.94-67.4Zm-13.71-.16-46.54-28.78-16.84,28.62Z" transform="translate(-175.4 -114.42)"/><polygon class="cls-3" points="350.7 135.05 389.63 202.45 311.81 202.45 350.7 135.05"/><polygon class="cls-2" points="428.55 404.65 389.63 337.25 467.45 337.25 428.55 404.65"/><polygon class="cls-3" points="311.81 337.25 233.96 337.25 272.88 269.85 311.81 337.25"/><polygon class="cls-2" points="195.04 135.05 195.06 135.05 233.96 202.45 156.1 202.45 156.1 202.4 195.04 135.05"/><polygon class="cls-1" points="117.22 135.05 195.04 135.05 156.1 202.4 117.22 135.05"/><polygon class="cls-3" points="272.84 0.25 233.96 67.6 195.06 0.25 272.84 0.25"/><polygon class="cls-1" points="39.35 269.85 78.25 337.25 0.43 337.25 39.35 269.85"/><polygon class="cls-2" points="117.17 404.65 78.3 337.25 156.1 337.25 117.22 404.65 117.17 404.65"/><polygon class="cls-2" points="233.96 337.25 272.84 404.65 195.04 404.65 233.96 337.25"/><polygon class="cls-2" points="195.04 269.85 156.1 337.25 117.17 269.85 195.04 269.85"/><line class="cls-5" x1="428.55" y1="404.65" x2="350.7" y2="404.65"/><line class="cls-5" x1="350.7" y1="404.65" x2="272.88" y2="404.65"/><line class="cls-5" x1="117.17" y1="404.65" x2="39.35" y2="404.65"/><line class="cls-5" x1="272.84" y1="404.65" x2="195.04" y2="404.65"/><line class="cls-5" x1="195.04" y1="404.65" x2="117.22" y2="404.65"/><polyline class="cls-5" points="233.96 337.25 195.04 404.65 156.1 337.25"/><polyline class="cls-5" points="311.81 337.25 272.88 404.65 272.84 404.65 233.96 337.25"/><polyline class="cls-5" points="156.1 337.25 117.22 404.65 117.17 404.65 78.3 337.25"/><line class="cls-5" x1="389.63" y1="202.45" x2="428.55" y2="269.85"/><line class="cls-5" x1="156.1" y1="337.25" x2="78.3" y2="337.25"/><line class="cls-5" x1="233.96" y1="337.25" x2="156.1" y2="337.25"/><line class="cls-5" x1="428.55" y1="269.85" x2="467.45" y2="337.25"/><polyline class="cls-5" points="195.04 269.85 156.1 337.25 117.17 269.85"/><line class="cls-5" x1="389.63" y1="202.45" x2="350.7" y2="269.85"/><line class="cls-5" x1="195.04" y1="269.85" x2="117.17" y2="269.85"/><line class="cls-5" x1="311.81" y1="337.25" x2="233.96" y2="337.25"/><line class="cls-5" x1="311.81" y1="337.25" x2="272.88" y2="269.85"/><polyline class="cls-5" points="311.81 202.45 350.7 269.85 272.88 269.85"/><polygon class="cls-5" points="428.55 404.65 389.63 337.25 467.45 337.25 428.55 404.65"/><polyline class="cls-5" points="78.25 337.25 39.35 404.65 0.43 337.25"/><line class="cls-5" x1="39.35" y1="269.85" x2="78.3" y2="202.45"/><polyline class="cls-5" points="350.7 269.85 428.55 269.85 389.63 337.25"/><polyline class="cls-5" points="311.81 337.25 350.7 269.85 389.63 337.25"/><polygon class="cls-5" points="350.7 404.65 311.81 337.25 389.63 337.25 350.7 404.65"/><polyline class="cls-5" points="78.25 337.25 0.43 337.25 39.35 269.85"/><polygon class="cls-5" points="78.3 337.25 78.25 337.25 39.35 269.85 117.17 269.85 78.3 337.25"/><polygon class="cls-5" points="233.96 337.25 195.04 269.85 272.88 269.85 233.96 337.25"/><polyline class="cls-5" points="311.78 67.65 311.81 67.65 350.7 135.05"/><polyline class="cls-5" points="350.7 135.05 389.63 202.45 311.81 202.45"/><polyline class="cls-5" points="311.81 202.45 272.88 269.85 233.96 202.45"/><polyline class="cls-5" points="233.96 202.45 195.04 269.85 156.1 202.45"/><polyline class="cls-5" points="272.88 135.05 350.7 135.05 311.81 202.45"/><polyline class="cls-5" points="117.22 135.05 117.22 135 156.1 67.65 156.14 67.65"/><polyline class="cls-5" points="78.3 202.45 117.17 135.05 117.22 135.05"/><polygon class="cls-5" points="117.17 269.85 78.3 202.45 156.1 202.45 117.17 269.85"/><polygon class="cls-5" points="311.81 202.45 233.96 202.45 272.88 135.05 311.81 202.45"/><line class="cls-5" x1="272.88" y1="135.05" x2="195.06" y2="135.05"/><line class="cls-5" x1="195.04" y1="135.05" x2="195.04" y2="135"/><polyline class="cls-5" points="195.04 135.05 195.06 135.05 233.96 202.45 156.1 202.45 156.1 202.4"/><polygon class="cls-5" points="195.04 135.05 156.1 202.4 117.22 135.05 195.04 135.05"/><polyline class="cls-5" points="233.92 67.65 195.04 135 156.14 67.65"/><line class="cls-5" x1="195.06" y1="0.25" x2="272.84" y2="0.25"/><polyline class="cls-5" points="233.96 67.6 272.84 0.25 272.88 0.25 311.78 67.65"/><polygon class="cls-5" points="272.88 135.05 233.96 67.65 311.78 67.65 272.88 135.05"/><polygon class="cls-5" points="233.92 67.65 156.14 67.65 156.1 67.6 195.04 0.25 195.06 0.25 233.96 67.6 233.96 67.65 233.92 67.65"/><path d="M221.69,683.81a11.59,11.59,0,0,0-.21,1.29q-2.59.33-4.08.48c-1,.1-2,.17-2.88.23s-1.69.08-2.3.08a15.75,15.75,0,0,1-4.4-.6,8.49,8.49,0,0,1-3.53-2,8,8,0,0,1-2.09-3.22,12,12,0,0,1-.63-3.93,13.58,13.58,0,0,1,.74-4.45A9,9,0,0,1,208,666a12.57,12.57,0,0,1,4.21-.71,11.88,11.88,0,0,1,4.19.74,7.87,7.87,0,0,1,3.27,2.22,8.75,8.75,0,0,1,1.83,3.26,13.23,13.23,0,0,1,.54,3.83,13.69,13.69,0,0,1-.28,2.82,10.84,10.84,0,0,1-.81,2.45,8.77,8.77,0,0,1-2.8,3.37,14.21,14.21,0,0,1-1.42.88c.73-.05,1.34-.11,1.83-.19a11.39,11.39,0,0,0,1.43-.32C220.41,684.21,221,684,221.69,683.81Zm-9.55-17.62a11.28,11.28,0,0,0-3.61.57,8.08,8.08,0,0,0-3,1.85,8.75,8.75,0,0,0-2.08,3.24,11.32,11.32,0,0,0-.75,4.09,12,12,0,0,0,.5,3.52,7.65,7.65,0,0,0,1.73,3,7.27,7.27,0,0,0,3,2,11,11,0,0,0,3.69.61,11.21,11.21,0,0,0,3.81-.64,7.71,7.71,0,0,0,3.06-2,7.94,7.94,0,0,0,1.87-3.18,12.63,12.63,0,0,0,.6-3.93,12.29,12.29,0,0,0-.48-3.5,8.06,8.06,0,0,0-1.59-2.95,6.6,6.6,0,0,0-2.9-2A11.1,11.1,0,0,0,212.14,666.19Z" transform="translate(-175.4 -114.42)"/><path d="M238,685.58H237l.12-3.18a10.12,10.12,0,0,1-.55,1.08,5.94,5.94,0,0,1-.55.7,4.62,4.62,0,0,1-.84.69,5.57,5.57,0,0,1-1.2.57,8.49,8.49,0,0,1-1.41.33,10.14,10.14,0,0,1-1.46.11,9.76,9.76,0,0,1-2.35-.28,5,5,0,0,1-1.93-1,3.4,3.4,0,0,1-1.15-1.6,6.4,6.4,0,0,1-.31-2.08c0-.59.06-2.06.2-4.41s.19-4.27.19-5.75h1.15c-.08.84-.2,2.58-.35,5.23s-.22,4.3-.22,5a5.29,5.29,0,0,0,.29,1.89,2.59,2.59,0,0,0,1,1.28,4.4,4.4,0,0,0,1.64.71,8.4,8.4,0,0,0,1.88.21,7.27,7.27,0,0,0,1.94-.26,6.09,6.09,0,0,0,1.55-.63,4.89,4.89,0,0,0,1.09-.94,6.54,6.54,0,0,0,.92-1.5,7.12,7.12,0,0,0,.5-1.85c.1-.74.2-2.07.27-4s.11-3.55.12-5.09h1.15L238.12,681l-.06,2.21C238,684.16,238,684.94,238,685.58Z" transform="translate(-175.4 -114.42)"/><path d="M243.09,672.34a10.1,10.1,0,0,0,.16-1.14,21.16,21.16,0,0,1,2.59-.57,16.49,16.49,0,0,1,2.23-.15,12.2,12.2,0,0,1,2.42.23,4.38,4.38,0,0,1,1.83.76,2.5,2.5,0,0,1,.94,1.22,4.53,4.53,0,0,1,.23,1.41c0,.49,0,1.1-.05,1.85s-.08,1.55-.14,2.41-.11,1.93-.16,3.22-.08,2.21-.08,2.77v1.23h-1.23c.14-1.49.23-2.7.29-3.63s.1-1.93.13-3,.08-2.06.14-3l-.7.56a3.84,3.84,0,0,1-.52.33,5.89,5.89,0,0,1-.69.3l-.74.26c-.23.08-.77.23-1.64.46s-1.48.41-1.85.53a11.82,11.82,0,0,0-1.95.78,5.44,5.44,0,0,0-1.24.87,3,3,0,0,0-.65.9,3.1,3.1,0,0,0-.23,1.18,2.55,2.55,0,0,0,.57,1.65,3,3,0,0,0,1.44,1,6.87,6.87,0,0,0,2.11.28,11.22,11.22,0,0,0,1.18-.06,8.69,8.69,0,0,0,1.08-.18c.34-.07.82-.21,1.46-.41a10.89,10.89,0,0,0-.22,1.11,17.3,17.3,0,0,1-1.93.3c-.49,0-1,.07-1.4.07a12.29,12.29,0,0,1-2.27-.2,3.82,3.82,0,0,1-1.74-.74,3.44,3.44,0,0,1-1-1.29,3.58,3.58,0,0,1-.13-2.73,3.51,3.51,0,0,1,.63-1.1,3.79,3.79,0,0,1,.93-.82,7.53,7.53,0,0,1,1.52-.79c.65-.25,1.34-.49,2.08-.7l2.42-.63a12.73,12.73,0,0,0,1.8-.63,3.06,3.06,0,0,0,1.32-1,2.38,2.38,0,0,0,.47-1.36,2.32,2.32,0,0,0-.22-1,2.52,2.52,0,0,0-.79-.87,3.51,3.51,0,0,0-1.39-.57,9.14,9.14,0,0,0-1.76-.16,14.2,14.2,0,0,0-2,.14,12.83,12.83,0,0,0-1.58.32A16.92,16.92,0,0,0,243.09,672.34Z" transform="translate(-175.4 -114.42)"/><path d="M257.14,685.58l.49-9,.13-4.2c0-.75,0-1.3,0-1.64h1.13l-.19,3.34c.21-.46.39-.81.53-1a4.43,4.43,0,0,1,.58-.77,5.08,5.08,0,0,1,.87-.77,4.63,4.63,0,0,1,1.22-.6,8,8,0,0,1,1.46-.35,10.53,10.53,0,0,1,1.48-.11,10,10,0,0,1,2.39.28,4.25,4.25,0,0,1,1.92,1,3.53,3.53,0,0,1,1,1.57,6.13,6.13,0,0,1,.29,1.89c0,.3,0,.75,0,1.35l-.31,6.66-.06,2.39H269c.1-1.22.18-2.39.23-3.5l.21-3.75c.07-1.39.11-2.39.11-3a4.91,4.91,0,0,0-.28-1.73,2.65,2.65,0,0,0-1-1.27,4.49,4.49,0,0,0-1.61-.73,8.31,8.31,0,0,0-1.94-.23,7.48,7.48,0,0,0-2.46.38,5.11,5.11,0,0,0-3,2.88,7.72,7.72,0,0,0-.56,2.21c-.12.82-.21,2.16-.28,4s-.11,3.43-.11,4.72h-1.17Z" transform="translate(-175.4 -114.42)"/><path d="M280.28,684.66a6.51,6.51,0,0,0-.18.92,8.89,8.89,0,0,1-2.18.3,5.61,5.61,0,0,1-1.49-.19,2.13,2.13,0,0,1-1.06-.66,2.45,2.45,0,0,1-.54-1,5.48,5.48,0,0,1-.13-1.24c0-.08,0-.2,0-.37s0-.53.05-1.09l.49-9.7h-1.81a7.23,7.23,0,0,0,.07-.79h1.79q.07-.93.12-2.76a6.51,6.51,0,0,0,1-.19c-.07,1.58-.1,2.57-.1,2.95h4.4a6.82,6.82,0,0,0-.08.79h-4.37l-.48,10v.6A4.13,4.13,0,0,0,276,684a1.77,1.77,0,0,0,.81.81,2.51,2.51,0,0,0,1.08.24,6.38,6.38,0,0,0,.84-.06Q279.2,684.93,280.28,684.66Z" transform="translate(-175.4 -114.42)"/><path d="M282.7,685.58c.11-1.46.23-4,.38-7.66s.22-6,.22-7.13h1.17q-.21,2.78-.4,7.59t-.2,7.2H282.7Zm.54-18.54,0-1.45h1.5l0,1.45q-.36,0-.75,0C283.73,667,283.48,667,283.24,667Z" transform="translate(-175.4 -114.42)"/><path d="M294.14,684.66a6.51,6.51,0,0,0-.18.92,9,9,0,0,1-2.18.3,5.61,5.61,0,0,1-1.49-.19,2.09,2.09,0,0,1-1.06-.66,2.45,2.45,0,0,1-.54-1,5.48,5.48,0,0,1-.13-1.24v-.37c0-.16,0-.53.06-1.09l.48-9.7h-1.8a7.23,7.23,0,0,0,.07-.79h1.79q.07-.93.12-2.76a6.51,6.51,0,0,0,1-.19c-.07,1.58-.1,2.57-.1,2.95h4.39a6.82,6.82,0,0,0-.07.79h-4.37l-.48,10,0,.6a4.1,4.1,0,0,0,.29,1.78,1.77,1.77,0,0,0,.81.81,2.49,2.49,0,0,0,1.07.24,6.41,6.41,0,0,0,.85-.06Q293,684.93,294.14,684.66Z" transform="translate(-175.4 -114.42)"/><path d="M297.26,672.34a10.1,10.1,0,0,0,.16-1.14,21.16,21.16,0,0,1,2.59-.57,16.49,16.49,0,0,1,2.23-.15,12.2,12.2,0,0,1,2.42.23,4.38,4.38,0,0,1,1.83.76,2.5,2.5,0,0,1,.94,1.22,4.53,4.53,0,0,1,.23,1.41c0,.49,0,1.1-.05,1.85s-.08,1.55-.14,2.41-.11,1.93-.16,3.22-.08,2.21-.08,2.77v1.23H306c.14-1.49.23-2.7.29-3.63s.1-1.93.13-3,.08-2.06.14-3l-.7.56a3.84,3.84,0,0,1-.52.33,5.89,5.89,0,0,1-.69.3l-.74.26c-.23.08-.77.23-1.64.46s-1.48.41-1.85.53a11.82,11.82,0,0,0-1.95.78,5.44,5.44,0,0,0-1.24.87,3,3,0,0,0-.65.9,3.1,3.1,0,0,0-.23,1.18,2.55,2.55,0,0,0,.57,1.65,3,3,0,0,0,1.44,1,6.87,6.87,0,0,0,2.11.28,11.22,11.22,0,0,0,1.18-.06,8.69,8.69,0,0,0,1.08-.18c.34-.07.82-.21,1.46-.41a10.89,10.89,0,0,0-.22,1.11,17.3,17.3,0,0,1-1.93.3c-.49,0-1,.07-1.4.07a12.29,12.29,0,0,1-2.27-.2,3.82,3.82,0,0,1-1.74-.74,3.44,3.44,0,0,1-1-1.29,3.58,3.58,0,0,1-.13-2.73,3.68,3.68,0,0,1,.62-1.1A4,4,0,0,1,297,679a7.53,7.53,0,0,1,1.52-.79c.65-.25,1.34-.49,2.08-.7l2.42-.63a12.73,12.73,0,0,0,1.8-.63,3.06,3.06,0,0,0,1.32-1,2.38,2.38,0,0,0,.47-1.36,2.32,2.32,0,0,0-.22-1,2.52,2.52,0,0,0-.79-.87,3.51,3.51,0,0,0-1.39-.57,9.14,9.14,0,0,0-1.76-.16,14.2,14.2,0,0,0-2,.14,12.83,12.83,0,0,0-1.58.32A16.92,16.92,0,0,0,297.26,672.34Z" transform="translate(-175.4 -114.42)"/><path d="M317.35,684.66a8.35,8.35,0,0,0-.17.92,9,9,0,0,1-2.18.3,5.56,5.56,0,0,1-1.49-.19,2.09,2.09,0,0,1-1.06-.66,2.25,2.25,0,0,1-.54-1,5.48,5.48,0,0,1-.14-1.24c0-.08,0-.2,0-.37s0-.53.05-1.09l.49-9.7h-1.81a7.29,7.29,0,0,0,.08-.79h1.79q.08-.93.12-2.76a6.51,6.51,0,0,0,1-.19c-.07,1.58-.1,2.57-.1,2.95h4.39a6.82,6.82,0,0,0-.07.79H313.3l-.47,10,0,.6a4.1,4.1,0,0,0,.29,1.78,1.79,1.79,0,0,0,.8.81,2.57,2.57,0,0,0,1.08.24,6.38,6.38,0,0,0,.84-.06Q316.27,684.93,317.35,684.66Z" transform="translate(-175.4 -114.42)"/><path d="M319.77,685.58c.11-1.46.24-4,.38-7.66s.22-6,.22-7.13h1.17c-.13,1.85-.27,4.38-.4,7.59s-.2,5.6-.2,7.2h-1.17Zm.54-18.54.05-1.45h1.49l0,1.45-.75,0Z" transform="translate(-175.4 -114.42)"/><path d="M329.14,685.58q-.83-2.39-1.92-5.32l-3.55-9.47H325l.38,1.24c.08.24.16.47.25.71l4.3,12L335.43,672l.48-1.24h1.32l-5.89,12.92-.79,1.87h-1.41Z" transform="translate(-175.4 -114.42)"/><path d="M349.82,684.13a10.45,10.45,0,0,0-.18,1.12,18.52,18.52,0,0,1-2.18.49,14.42,14.42,0,0,1-2,.14,9.28,9.28,0,0,1-3.11-.48,5.36,5.36,0,0,1-2.32-1.58,6.48,6.48,0,0,1-1.38-2.48,10.7,10.7,0,0,1,.29-6.74,6.49,6.49,0,0,1,6.31-4.12,7,7,0,0,1,3,.61,4.31,4.31,0,0,1,2.07,2,6.86,6.86,0,0,1,.74,3.27c0,.23,0,.46,0,.67l-11.6,0c-.05.63-.07,1.11-.07,1.43a8.69,8.69,0,0,0,.41,2.69,5.44,5.44,0,0,0,1.24,2.18,5.1,5.1,0,0,0,2,1.3,7.17,7.17,0,0,0,2.45.42A12.29,12.29,0,0,0,349.82,684.13Zm-10.26-7.91,10.43,0a9.47,9.47,0,0,0-.12-1.56,4,4,0,0,0-.38-1.11,4.17,4.17,0,0,0-.66-1,3.68,3.68,0,0,0-.91-.7,4.28,4.28,0,0,0-1.17-.43,5.94,5.94,0,0,0-1.35-.15,6.53,6.53,0,0,0-1.53.18,5.75,5.75,0,0,0-1.36.48,5.43,5.43,0,0,0-1.15.78,4.51,4.51,0,0,0-.88,1,5.51,5.51,0,0,0-.53,1.06A13.84,13.84,0,0,0,339.56,676.22Z" transform="translate(-175.4 -114.42)"/><path d="M361.7,685.58l.26-5.1.3-9.81.06-2.9c0-.71,0-1.44,0-2.18h10.95a10.21,10.21,0,0,0-.06,1c-.84-.08-1.78-.12-2.83-.13l-2.86,0h-4l-.26,8.44,3.12,0c2.66,0,4.63,0,5.92,0a8.82,8.82,0,0,0-.08,1l-2.6,0-2.43,0q-1.89,0-4,.06c-.12,4.19-.17,7.41-.17,9.65H361.7Z" transform="translate(-175.4 -114.42)"/><path d="M376.4,685.58c.11-1.46.24-4,.39-7.66s.21-6,.21-7.13h1.18q-.21,2.78-.41,7.59t-.19,7.2H376.4Zm.54-18.54.05-1.45h1.49l0,1.45-.75,0Z" transform="translate(-175.4 -114.42)"/><path d="M381.79,685.58l.5-9,.13-4.2c0-.75,0-1.3,0-1.64h1.13l-.2,3.34q.33-.69.54-1a4.43,4.43,0,0,1,.58-.77,5.08,5.08,0,0,1,.87-.77,4.63,4.63,0,0,1,1.22-.6,8.06,8.06,0,0,1,1.45-.35,10.76,10.76,0,0,1,1.48-.11,9.9,9.9,0,0,1,2.39.28,4.15,4.15,0,0,1,1.92,1,3.47,3.47,0,0,1,1.05,1.57,6.13,6.13,0,0,1,.29,1.89c0,.3,0,.75-.05,1.35l-.3,6.66-.06,2.39h-1.13c.1-1.22.17-2.39.23-3.5l.2-3.75q.12-2.08.12-3a4.91,4.91,0,0,0-.28-1.73,2.65,2.65,0,0,0-1-1.27,4.46,4.46,0,0,0-1.62-.73,8.16,8.16,0,0,0-1.93-.23,7.39,7.39,0,0,0-2.46.38,5.11,5.11,0,0,0-3,2.88,7.72,7.72,0,0,0-.56,2.21c-.12.82-.21,2.16-.28,4s-.11,3.43-.11,4.72h-1.18Z" transform="translate(-175.4 -114.42)"/><path d="M399.8,672.34c.06-.33.12-.71.16-1.14a21.16,21.16,0,0,1,2.59-.57,16.49,16.49,0,0,1,2.23-.15,12.2,12.2,0,0,1,2.42.23,4.38,4.38,0,0,1,1.83.76,2.5,2.5,0,0,1,.94,1.22,4.53,4.53,0,0,1,.23,1.41c0,.49,0,1.1-.05,1.85s-.08,1.55-.14,2.41-.11,1.93-.16,3.22-.08,2.21-.08,2.77v1.23h-1.23c.14-1.49.23-2.7.29-3.63s.09-1.93.13-3,.08-2.06.14-3l-.7.56a3.84,3.84,0,0,1-.52.33,6.74,6.74,0,0,1-.69.3l-.74.26c-.23.08-.77.23-1.64.46s-1.48.41-1.85.53a11.82,11.82,0,0,0-1.95.78,5.23,5.23,0,0,0-1.24.87,2.81,2.81,0,0,0-.65.9,3.1,3.1,0,0,0-.23,1.18,2.55,2.55,0,0,0,.57,1.65,3,3,0,0,0,1.44,1,6.8,6.8,0,0,0,2.1.28,11.28,11.28,0,0,0,1.19-.06,8.69,8.69,0,0,0,1.08-.18c.34-.07.82-.21,1.46-.41a10.89,10.89,0,0,0-.22,1.11,17.66,17.66,0,0,1-1.93.3c-.49,0-1,.07-1.4.07a12.29,12.29,0,0,1-2.27-.2,3.82,3.82,0,0,1-1.74-.74,3.44,3.44,0,0,1-1-1.29,3.55,3.55,0,0,1-.34-1.53,3.78,3.78,0,0,1,.2-1.2,4,4,0,0,1,.63-1.1,4,4,0,0,1,.94-.82,7.53,7.53,0,0,1,1.52-.79c.65-.25,1.34-.49,2.08-.7l2.42-.63a12.73,12.73,0,0,0,1.8-.63,3.06,3.06,0,0,0,1.32-1,2.38,2.38,0,0,0,.47-1.36,2.32,2.32,0,0,0-.22-1,2.52,2.52,0,0,0-.79-.87,3.49,3.49,0,0,0-1.4-.57,9,9,0,0,0-1.75-.16,14.2,14.2,0,0,0-2,.14,12.83,12.83,0,0,0-1.58.32A16.92,16.92,0,0,0,399.8,672.34Z" transform="translate(-175.4 -114.42)"/><path d="M413.84,685.58l.5-9,.13-4.2c0-.75,0-1.3,0-1.64h1.13l-.2,3.34q.33-.69.54-1a4.43,4.43,0,0,1,.58-.77,5.08,5.08,0,0,1,.87-.77,4.63,4.63,0,0,1,1.22-.6,8,8,0,0,1,1.46-.35,10.53,10.53,0,0,1,1.48-.11,9.88,9.88,0,0,1,2.38.28,4.15,4.15,0,0,1,1.92,1,3.47,3.47,0,0,1,1.05,1.57,6.13,6.13,0,0,1,.29,1.89c0,.3,0,.75-.05,1.35l-.3,6.66-.06,2.39h-1.13c.1-1.22.17-2.39.23-3.5l.21-3.75c.07-1.39.11-2.39.11-3a4.91,4.91,0,0,0-.28-1.73,2.65,2.65,0,0,0-1-1.27,4.49,4.49,0,0,0-1.61-.73,8.31,8.31,0,0,0-1.94-.23,7.48,7.48,0,0,0-2.46.38,5.11,5.11,0,0,0-3,2.88,7.72,7.72,0,0,0-.56,2.21c-.12.82-.21,2.16-.28,4s-.11,3.43-.11,4.72h-1.18Z" transform="translate(-175.4 -114.42)"/><path d="M441.22,684.4a11,11,0,0,0-.2,1.11,18.41,18.41,0,0,1-3.47.37,9.35,9.35,0,0,1-2.85-.43,5.52,5.52,0,0,1-2.28-1.37,5.64,5.64,0,0,1-1.41-2.37,9.6,9.6,0,0,1-.47-3,11.56,11.56,0,0,1,.73-4.07,6.34,6.34,0,0,1,2.31-3,7.33,7.33,0,0,1,4.3-1.12,13,13,0,0,1,3.77.54,7.78,7.78,0,0,0,.1,1,17.42,17.42,0,0,0-2.39-.61,10.26,10.26,0,0,0-1.58-.14,6,6,0,0,0-2.72.59,5.34,5.34,0,0,0-2,1.68A6.79,6.79,0,0,0,432,676a11.17,11.17,0,0,0-.33,2.68,9.44,9.44,0,0,0,.37,2.71,4.55,4.55,0,0,0,1.17,2,5.36,5.36,0,0,0,2,1.21,7.22,7.22,0,0,0,2.46.41,9.09,9.09,0,0,0,1.52-.13C439.68,684.82,440.37,684.65,441.22,684.4Z" transform="translate(-175.4 -114.42)"/><path d="M444.87,685.58c.11-1.46.24-4,.38-7.66s.22-6,.22-7.13h1.17c-.13,1.85-.27,4.38-.4,7.59s-.2,5.6-.2,7.2h-1.17Zm.54-18.54,0-1.45H447l0,1.45-.75,0C445.9,667,445.66,667,445.41,667Z" transform="translate(-175.4 -114.42)"/><path d="M451.17,672.34a10.1,10.1,0,0,0,.16-1.14,21.57,21.57,0,0,1,2.59-.57,16.6,16.6,0,0,1,2.23-.15,12.2,12.2,0,0,1,2.42.23,4.48,4.48,0,0,1,1.84.76,2.54,2.54,0,0,1,.93,1.22,4.53,4.53,0,0,1,.23,1.41c0,.49,0,1.1-.05,1.85s-.08,1.55-.14,2.41-.11,1.93-.16,3.22-.07,2.21-.07,2.77v1.23h-1.24c.14-1.49.24-2.7.29-3.63s.1-1.93.13-3,.08-2.06.14-3c-.3.25-.53.44-.7.56a3.84,3.84,0,0,1-.52.33,5.89,5.89,0,0,1-.69.3l-.74.26c-.23.08-.77.23-1.63.46s-1.49.41-1.86.53a11.82,11.82,0,0,0-1.95.78,5.44,5.44,0,0,0-1.24.87,2.77,2.77,0,0,0-.64.9,2.93,2.93,0,0,0-.24,1.18,2.55,2.55,0,0,0,.57,1.65,3,3,0,0,0,1.44,1,6.91,6.91,0,0,0,2.11.28,11.22,11.22,0,0,0,1.18-.06,8.69,8.69,0,0,0,1.08-.18c.34-.07.82-.21,1.46-.41-.09.37-.16.74-.22,1.11a17.3,17.3,0,0,1-1.93.3c-.49,0-1,.07-1.4.07a12.37,12.37,0,0,1-2.27-.2,3.82,3.82,0,0,1-1.74-.74,3.44,3.44,0,0,1-1-1.29,3.58,3.58,0,0,1-.13-2.73,3.51,3.51,0,0,1,.63-1.1,3.79,3.79,0,0,1,.93-.82,7.36,7.36,0,0,1,1.53-.79c.64-.25,1.33-.49,2.08-.7l2.41-.63a12.31,12.31,0,0,0,1.8-.63,3,3,0,0,0,1.32-1,2.38,2.38,0,0,0,.47-1.36,2.32,2.32,0,0,0-.22-1,2.52,2.52,0,0,0-.79-.87,3.51,3.51,0,0,0-1.39-.57,9.07,9.07,0,0,0-1.76-.16,14,14,0,0,0-2,.14,12.65,12.65,0,0,0-1.59.32A16.92,16.92,0,0,0,451.17,672.34Z" transform="translate(-175.4 -114.42)"/><path d="M465.32,685.58q.68-12.21.79-20h1.2l-.37,7.13-.42,12.86h-1.2Z" transform="translate(-175.4 -114.42)"/><path d="M478.75,685.58l.26-5.1.31-9.81.06-2.9c0-.71,0-1.44,0-2.18h10.95a10.21,10.21,0,0,0-.06,1c-.84-.08-1.78-.12-2.83-.13l-2.87,0h-4l-.26,8.44,3.12,0c2.65,0,4.62,0,5.91,0a9.05,9.05,0,0,0-.07,1l-2.61,0-2.43,0c-1.26,0-2.58,0-4,.06q-.18,6.29-.18,9.65h-1.29Z" transform="translate(-175.4 -114.42)"/><path d="M493.25,685.58q.18-3.09.34-7.26t.16-6.21v-1.32h1.08l-.13,2.77a8,8,0,0,1,.92-1.51,4.26,4.26,0,0,1,1-.86,4.92,4.92,0,0,1,1.32-.53,6.75,6.75,0,0,1,1.57-.18,5.15,5.15,0,0,1,1.22.15,8.22,8.22,0,0,0,.06,1,7.42,7.42,0,0,0-1.7-.25,4.18,4.18,0,0,0-1.27.19,3.79,3.79,0,0,0-1.05.56,4.89,4.89,0,0,0-1,1,5,5,0,0,0-.7,1.36,8.22,8.22,0,0,0-.39,2c-.11,1.25-.17,2.68-.2,4.28,0,2.16-.06,3.76-.06,4.79h-1.18Z" transform="translate(-175.4 -114.42)"/><path d="M503.6,672.34c.06-.33.12-.71.16-1.14a21.16,21.16,0,0,1,2.59-.57,16.38,16.38,0,0,1,2.23-.15,12.28,12.28,0,0,1,2.42.23,4.38,4.38,0,0,1,1.83.76,2.57,2.57,0,0,1,.94,1.22,4.53,4.53,0,0,1,.23,1.41c0,.49,0,1.1,0,1.85s-.09,1.55-.14,2.41-.12,1.93-.16,3.22-.08,2.21-.08,2.77v1.23h-1.23c.14-1.49.23-2.7.29-3.63s.09-1.93.13-3,.08-2.06.14-3l-.7.56a4,4,0,0,1-.53.33,6.5,6.5,0,0,1-.68.3l-.74.26c-.23.08-.77.23-1.64.46s-1.48.41-1.85.53a11.82,11.82,0,0,0-1.95.78,5.23,5.23,0,0,0-1.24.87,2.81,2.81,0,0,0-.65.9,3.1,3.1,0,0,0-.23,1.18,2.55,2.55,0,0,0,.57,1.65,3,3,0,0,0,1.44,1,6.8,6.8,0,0,0,2.1.28A11.42,11.42,0,0,0,508,685a8.69,8.69,0,0,0,1.08-.18c.33-.07.82-.21,1.45-.41-.08.37-.16.74-.22,1.11a17.18,17.18,0,0,1-1.92.3c-.5,0-1,.07-1.4.07a12.29,12.29,0,0,1-2.27-.2,3.78,3.78,0,0,1-1.74-.74,3.44,3.44,0,0,1-1-1.29,3.55,3.55,0,0,1-.34-1.53,3.78,3.78,0,0,1,.2-1.2,4,4,0,0,1,.63-1.1,4,4,0,0,1,.94-.82,7.53,7.53,0,0,1,1.52-.79c.65-.25,1.34-.49,2.08-.7l2.42-.63a12.73,12.73,0,0,0,1.8-.63,3.12,3.12,0,0,0,1.32-1,2.37,2.37,0,0,0,.46-1.36,2.17,2.17,0,0,0-.22-1A2.39,2.39,0,0,0,512,672a3.49,3.49,0,0,0-1.4-.57,9,9,0,0,0-1.75-.16,14.1,14.1,0,0,0-2,.14,12.83,12.83,0,0,0-1.58.32A16.92,16.92,0,0,0,503.6,672.34Z" transform="translate(-175.4 -114.42)"/><path d="M517.64,685.58l.16-2c0-.4.06-.8.08-1.2l.38-9.77c0-.71,0-1.33,0-1.83h1.13l-.15,3.07a10.09,10.09,0,0,1,.86-1.4,4.89,4.89,0,0,1,1.07-1,5.24,5.24,0,0,1,1.52-.74,6.18,6.18,0,0,1,1.78-.26,5.73,5.73,0,0,1,1.51.2,4.76,4.76,0,0,1,1.22.52,3.23,3.23,0,0,1,.84.69,2.77,2.77,0,0,1,.52.79,5.69,5.69,0,0,1,.36,1.12c.2-.38.38-.71.56-1a4.81,4.81,0,0,1,.71-.86,4.74,4.74,0,0,1,1.06-.77,6.3,6.3,0,0,1,2.92-.71,6.3,6.3,0,0,1,2.3.42,3.39,3.39,0,0,1,1.68,1.34,4,4,0,0,1,.59,2.21c0,.48,0,1.2-.1,2.18s-.14,2.35-.23,4.14-.13,3.4-.13,4.81h-1.18c.09-1.2.18-2.63.27-4.3l.22-4c0-1,.08-1.84.08-2.49a7.74,7.74,0,0,0,0-.89,2.74,2.74,0,0,0-.2-.73,2.4,2.4,0,0,0-.44-.68,2.92,2.92,0,0,0-.72-.57,3.87,3.87,0,0,0-1-.38,5.54,5.54,0,0,0-1.24-.14,5,5,0,0,0-1.76.3,4.82,4.82,0,0,0-1.45.82,4.71,4.71,0,0,0-1.07,1.28,7.47,7.47,0,0,0-.68,2,26.85,26.85,0,0,0-.32,3.92l-.16,5.86h-1.17c.1-1.34.17-2.64.22-3.92l.18-3.7q.09-1.76.09-2.91a5.14,5.14,0,0,0-.21-1.67,2.75,2.75,0,0,0-.66-1,3.29,3.29,0,0,0-1.16-.71,4.47,4.47,0,0,0-1.53-.26,5.05,5.05,0,0,0-1.74.3,5,5,0,0,0-1.48.86,4.72,4.72,0,0,0-1.09,1.35,7.36,7.36,0,0,0-.72,2.12,29.94,29.94,0,0,0-.37,4.07c-.1,2.16-.14,4-.14,5.51h-1.18Z" transform="translate(-175.4 -114.42)"/><path d="M553.58,684.13a10.45,10.45,0,0,0-.18,1.12,18.52,18.52,0,0,1-2.18.49,14.42,14.42,0,0,1-2,.14,9.28,9.28,0,0,1-3.11-.48,5.36,5.36,0,0,1-2.32-1.58,6.48,6.48,0,0,1-1.38-2.48,10.7,10.7,0,0,1,.29-6.74,6.49,6.49,0,0,1,6.32-4.12,7,7,0,0,1,3,.61,4.31,4.31,0,0,1,2.07,2,6.86,6.86,0,0,1,.74,3.27c0,.23,0,.46,0,.67l-11.6,0c-.05.63-.07,1.11-.07,1.43a8.69,8.69,0,0,0,.41,2.69,5.44,5.44,0,0,0,1.24,2.18,5.1,5.1,0,0,0,2,1.3,7.18,7.18,0,0,0,2.46.42A12.28,12.28,0,0,0,553.58,684.13Zm-10.26-7.91,10.43,0a9.47,9.47,0,0,0-.12-1.56,4,4,0,0,0-.38-1.11,4.17,4.17,0,0,0-.66-1,3.68,3.68,0,0,0-.91-.7,4.28,4.28,0,0,0-1.17-.43,5.94,5.94,0,0,0-1.35-.15,6.53,6.53,0,0,0-1.53.18,5.75,5.75,0,0,0-1.36.48,5.43,5.43,0,0,0-1.15.78,4.51,4.51,0,0,0-.88,1,5.51,5.51,0,0,0-.53,1.06A13.84,13.84,0,0,0,543.32,676.22Z" transform="translate(-175.4 -114.42)"/><path d="M561.4,685.58l-.67-2L556,670.79h1.2l.58,1.8,2.29,6.44,1.6,4.29.6,1.5,1.4-3.58,3.89-10.45H569l3.9,14q3.69-8,6.14-14h1.18l-5.69,12.58-.94,2.21h-1.62l-.69-2.74-2.6-9.46-.48-1.54-.49,1.17-4.24,11.46q-.09.22-.36,1.11H561.4Z" transform="translate(-175.4 -114.42)"/><path d="M588.48,670.48a9.31,9.31,0,0,1,2.64.38,5.54,5.54,0,0,1,2.25,1.3,6,6,0,0,1,1.49,2.39,9.57,9.57,0,0,1,.51,3.14,10.83,10.83,0,0,1-.54,3.42,7.79,7.79,0,0,1-1.54,2.75,5.43,5.43,0,0,1-2.34,1.56,8.87,8.87,0,0,1-2.85.46,9,9,0,0,1-2.07-.25,6,6,0,0,1-1.9-.81,5.76,5.76,0,0,1-1.56-1.48,6.58,6.58,0,0,1-1-2.15,9.71,9.71,0,0,1-.34-2.6,10.32,10.32,0,0,1,.88-4.31,5.84,5.84,0,0,1,2.63-2.88A8,8,0,0,1,588.48,670.48Zm0,.82a6.37,6.37,0,0,0-3.23.85,5,5,0,0,0-2.2,2.59,10.07,10.07,0,0,0-.7,3.82,9.15,9.15,0,0,0,.4,2.75,5.13,5.13,0,0,0,1.3,2.17,4.91,4.91,0,0,0,1.92,1.23,6.86,6.86,0,0,0,2.18.34,7,7,0,0,0,2.44-.42,4.91,4.91,0,0,0,2-1.42,6.19,6.19,0,0,0,1.28-2.44,11.4,11.4,0,0,0,.41-3.08,10,10,0,0,0-.4-2.83,4.72,4.72,0,0,0-1.26-2.12,4.83,4.83,0,0,0-1.93-1.12A7.91,7.91,0,0,0,588.45,671.3Z" transform="translate(-175.4 -114.42)"/><path d="M598.49,685.58q.18-3.09.34-7.26c.1-2.79.16-4.86.16-6.21l0-1.32h1.09l-.14,2.77a7.92,7.92,0,0,1,.93-1.51,3.88,3.88,0,0,1,1-.86,4.72,4.72,0,0,1,1.31-.53,6.83,6.83,0,0,1,1.58-.18,5.07,5.07,0,0,1,1.21.15,8.22,8.22,0,0,0,.06,1,7.34,7.34,0,0,0-1.7-.25,4.18,4.18,0,0,0-1.27.19,4.09,4.09,0,0,0-1,.56,4.61,4.61,0,0,0-1,1,4.75,4.75,0,0,0-.7,1.36,8.19,8.19,0,0,0-.4,2c-.1,1.25-.17,2.68-.2,4.28,0,2.16-.05,3.76-.05,4.79h-1.18Z" transform="translate(-175.4 -114.42)"/><path d="M608.07,685.58c.13-2,.23-4.22.32-6.66l.24-7.46c.07-2.53.11-4.49.11-5.87h1.2l-.17,2.93-.47,13.87-.06,3.19h-1.17Zm1.49-8.22,4-3.82,1.24-1.23.58-.62.84-.9h1.51l-5.17,4.9c-.46.43-1,1-1.72,1.67l5.3,5.73,2.37,2.49H617l-3.09-3.47Z" transform="translate(-175.4 -114.42)"/><path class="cls-6" d="M265.36,623q-.39,1.55-1,5.38-6.89,1-13.23,1.46t-10.46.48A40.62,40.62,0,0,1,229.81,629a22,22,0,0,1-8.89-4.8,19.88,19.88,0,0,1-5.48-7.82,26.51,26.51,0,0,1-1.69-9.56,30.33,30.33,0,0,1,1.84-10.52,21.66,21.66,0,0,1,5.45-8.42,24.74,24.74,0,0,1,8.6-5.2,33.28,33.28,0,0,1,20.74-.3,20.71,20.71,0,0,1,8.09,4.74,20.94,20.94,0,0,1,5.13,7.79,26.58,26.58,0,0,1,1.76,9.6,30.66,30.66,0,0,1-.39,4.93,25.61,25.61,0,0,1-1.11,4.43,21.13,21.13,0,0,1-1.84,3.91,18.79,18.79,0,0,1-2.37,3.18,26.62,26.62,0,0,1-2.45,2.29c-.8.64-1.78,1.35-2.95,2.13q2.46-.21,4-.48a31.17,31.17,0,0,0,3.08-.66C262.36,623.92,263.69,623.54,265.36,623Zm-25-37.51a23,23,0,0,0-7.73,1.3,17.85,17.85,0,0,0-6.54,4.06,18.58,18.58,0,0,0-4.41,6.91,24,24,0,0,0-1.57,8.58,24.89,24.89,0,0,0,1.06,7.43,15.9,15.9,0,0,0,3.69,6.26,16.17,16.17,0,0,0,6.34,4.2,22.28,22.28,0,0,0,7.83,1.37,23.19,23.19,0,0,0,8.08-1.4,17,17,0,0,0,6.54-4.24,17.3,17.3,0,0,0,4-6.78,26.67,26.67,0,0,0,1.28-8.32,22.47,22.47,0,0,0-2.39-10.72,14.66,14.66,0,0,0-6.69-6.57A21.46,21.46,0,0,0,240.36,585.53Z" transform="translate(-175.4 -114.42)"/><path class="cls-6" d="M275.09,581.59l3.48,0,3.42,0-1.59,26.83-.1,3.27v.67a16.27,16.27,0,0,0,1.44,7.57,9.68,9.68,0,0,0,4.59,4.17,18.8,18.8,0,0,0,8,1.47,20.34,20.34,0,0,0,6-.84,12.63,12.63,0,0,0,3.88-2,10.58,10.58,0,0,0,2.66-3,12.8,12.8,0,0,0,1.4-3.9,92.35,92.35,0,0,0,.88-9.57l.63-11.32q.27-6.26.38-13.36l3.63,0,3.27,0-1,16.56-.64,13.71a40.64,40.64,0,0,1-1,7.42,13.79,13.79,0,0,1-1.54,3.52,11.5,11.5,0,0,1-2.25,2.63,16.87,16.87,0,0,1-3.84,2.5,23.15,23.15,0,0,1-5.06,1.69,42,42,0,0,1-7.94.74,33,33,0,0,1-7.49-.81,20.73,20.73,0,0,1-5.55-2.15,14.23,14.23,0,0,1-4-3.27,10.81,10.81,0,0,1-2-3.72,17.67,17.67,0,0,1-.84-5.59q0-3.27.26-7.49t.66-12.73Q275.08,586.09,275.09,581.59Z" transform="translate(-175.4 -114.42)"/><path class="cls-6" d="M319.25,629.58l6.4-12.09L342,585.6l1.9-4,4.08,0c1.27,0,2.64,0,4.12,0l6.08,17.23,11.25,30.76-3.34-.07c-.64,0-1.89,0-3.77.07q-.94-3.37-3.14-9.77t-3.7-10.37H336.23L331.14,620l-4.5,9.63-3.61-.07C322.45,629.51,321.19,629.54,319.25,629.58ZM338.3,604.8h15.8l-6.53-18.6Z" transform="translate(-175.4 -114.42)"/><path class="cls-6" d="M375.71,629.58l.71-9.77,1.2-28.55.14-5.55c0-1.76,0-3.13,0-4.12,1.76,0,3.22,0,4.39,0,1,0,2.31,0,4,0l3.83,6.19,23.24,35.05,1.48-41.24,3.13,0,3.09,0-.77,12.31-.94,21.69-.42,14c-1.38,0-2.74-.07-4.08-.07s-2.63,0-4.25.07l-3.23-5.17-23.82-35.68c-.09,1.31-.18,3.38-.28,6.19l-1,24.85-.21,9.81c-1.52,0-2.54-.07-3.06-.07Z" transform="translate(-175.4 -114.42)"/><path class="cls-6" d="M439.87,629.58l.71-10.76.94-22.28.32-10.31q-8.61,0-15.07.32c.14-1.87.22-3.53.24-5q8.92,0,19.26,0l11.25,0h6c-.17,2.08-.25,3.73-.25,5q-5.44-.31-12.06-.32h-2.88l-.73,15.57-.74,21.92v5.86l-3.38-.07Z" transform="translate(-175.4 -114.42)"/><path class="cls-6" d="M461.25,629.58l6.4-12.09L484,585.6l1.9-4,4.08,0c1.27,0,2.64,0,4.11,0l6.08,17.23,11.25,30.76-3.34-.07c-.63,0-1.89,0-3.76.07q-.94-3.37-3.14-9.77t-3.71-10.37H478.22L473.13,620l-4.49,9.63-3.61-.07C464.44,629.51,463.18,629.54,461.25,629.58Zm19-24.78H496.1l-6.53-18.6Z" transform="translate(-175.4 -114.42)"/><path class="cls-6" d="M511.42,629.58l8-10,11.46-14.87-9.46-14.27-6-8.82c1.57,0,2.95,0,4.12,0,1,0,2.24,0,3.74,0q2.8,4.73,6.41,9.91t5.29,8l11.36-14.18,1-1.42,1.58-2.27c1.36,0,2.6,0,3.72,0l3.69,0q-2.82,3.69-8.07,10.28t-9.92,12.78q2.8,4.53,6.47,10.07l9.86,14.86c-1.78,0-3-.07-3.8-.07-1.1,0-2.44,0-4,.07l-1.77-3q-.72-1.2-1.74-2.85l-9-14-8.63,10.89q-4.11,5.16-6.86,9c-1.68,0-2.92-.07-3.72-.07S513.12,629.54,511.42,629.58Z" transform="translate(-175.4 -114.42)"/><path class="cls-6" d="M560.92,629.58l.52-8.08.74-16.84.49-16.6q0-1.44,0-2.88l0-3.59,3.62,0,3.42,0q-.65,8.79-1,18.36-.57,15.31-.81,29.63l-3.3-.07Z" transform="translate(-175.4 -114.42)"/><path class="cls-6" d="M576.88,628.32q-.15-3.35-.46-5.8a35.72,35.72,0,0,0,6.7,2.47,24.2,24.2,0,0,0,5.71.72,13.13,13.13,0,0,0,4.9-.89,7.24,7.24,0,0,0,3.41-2.53,6.33,6.33,0,0,0,1.15-3.75,6.69,6.69,0,0,0-.39-2.3,8,8,0,0,0-1.25-2.18,24.83,24.83,0,0,0-3-3q-2.11-1.87-6-5.18l-2.6-2.22c-1-.84-1.87-1.68-2.67-2.51a20.93,20.93,0,0,1-2-2.39,13.75,13.75,0,0,1-1.25-2.08,10.06,10.06,0,0,1-.69-2.07,11.33,11.33,0,0,1-.24-2.34,10.5,10.5,0,0,1,1.65-5.66,11.53,11.53,0,0,1,5-4.22,20.68,20.68,0,0,1,8.78-1.58,53.56,53.56,0,0,1,9.59,1.06c.05,1.5.21,3.36.5,5.55a29.6,29.6,0,0,0-9.78-1.9,11.41,11.41,0,0,0-5.06,1,7.62,7.62,0,0,0-3.09,2.55,5.61,5.61,0,0,0-1.06,3.2,6.86,6.86,0,0,0,.28,1.92,6.55,6.55,0,0,0,.85,1.77,17.26,17.26,0,0,0,2,2.48c.8.83,1.9,1.85,3.31,3l4,3.31q3.5,2.88,5.1,4.46a23,23,0,0,1,2.55,2.94,11.28,11.28,0,0,1,1.47,2.92,10.3,10.3,0,0,1,.53,3.39,11.19,11.19,0,0,1-1.21,5.18,10.17,10.17,0,0,1-3.48,3.89,15,15,0,0,1-5.05,2.14,26.1,26.1,0,0,1-5.8.64,36.3,36.3,0,0,1-5-.37A68.23,68.23,0,0,1,576.88,628.32Z" transform="translate(-175.4 -114.42)"/></svg>