<?xml version="1.0" standalone="no"?><!DOCTYPE svg PUBLIC "-//W3C//DTD SVG 1.1//EN" "http://www.w3.org/Graphics/SVG/1.1/DTD/svg11.dtd"><svg t="1583998518643" class="icon" viewBox="0 0 1024 1024" version="1.1" xmlns="http://www.w3.org/2000/svg" p-id="13324" xmlns:xlink="http://www.w3.org/1999/xlink" width="200" height="200"><defs><style type="text/css"></style></defs><path d="M932.992 727.264c-16.64-11.744-45.024-84.96-65.92-138.72l-11.104-28.544H928a32 32 0 1 0 0-64h-97.952C775.392 366.784 700.544 233.28 576 209.728V96a32 32 0 1 0-64 0v111.36c-139.008 15.68-206.304 161.632-259.104 288.64H96a32 32 0 0 0 0 64h130.208C195.936 630.784 164.224 692.864 128 692.864a32 32 0 1 0 0 64c81.408 0 124.576-93.184 167.648-196.864H512V960a32 32 0 1 0 64 0V560h211.104c7.072 17.664 13.824 35.04 20.288 51.68 41.984 108.064 69.696 179.424 122.656 179.424a32 32 0 0 0 2.944-63.84zM322.336 496c44.576-104.704 98.048-208.032 189.664-223.968V496h-189.664z m253.664 0V275.84c81.664 23.872 139.52 119.648 184.256 220.16H576z" p-id="13325"></path></svg>